<svg width="20" height="20" viewBox="0 0 20 20" fill="none" xmlns="http://www.w3.org/2000/svg">
<path d="M12.0641 16.7747C10.9794 18.5628 8.8451 19.4208 6.82468 18.8809C4.80426 18.341 3.38238 16.5327 3.33427 14.4419C3.28615 12.3512 4.62332 10.4794 6.61677 9.84715M9.21506 4.92231C10.2982 4.92231 11.1762 4.04427 11.1762 2.96115C11.1762 1.87804 10.2982 1 9.21506 1C8.13194 1 7.25391 1.87804 7.25391 2.96115C7.25391 4.04427 8.13194 4.92231 9.21506 4.92231ZM10.391 7.6679C10.391 7.01803 9.86416 6.49121 9.21429 6.49121C8.56442 6.49121 8.0376 7.01803 8.0376 7.6679V13.9436C8.0376 14.5935 8.56442 15.1203 9.21429 15.1203H12.7444C12.8796 15.1203 13.0053 15.19 13.077 15.3046L14.5769 17.7051C14.7997 18.0616 15.1957 18.2721 15.6159 18.2574C16.036 18.2427 16.4164 18.005 16.6137 17.6338C16.811 17.2626 16.7953 16.8143 16.5725 16.4578L15.0726 14.0573C14.5731 13.2523 13.6918 12.7639 12.7444 12.7669H10.7832C10.5666 12.7669 10.391 12.5913 10.391 12.3747V7.6679Z" stroke="#252525" stroke-linecap="round" stroke-linejoin="round"/>
</svg>