<svg width="20" height="21" viewBox="0 0 20 21" fill="none" xmlns="http://www.w3.org/2000/svg">
<path d="M16.7208 7.30995C17.1651 7.5242 17.5468 7.84915 17.8292 8.25355C18.1116 8.65796 18.2852 9.12822 18.3333 9.61911C18.3333 11.5758 15.3483 13.1608 11.6667 13.1608C7.985 13.1608 5 11.5774 5 9.61911C5 8.30828 6.34 7.16328 8.33333 6.55078M17.1412 13.8527C17.3706 14.2048 17.4952 14.615 17.5003 15.0352C17.5003 17.2219 13.9562 18.9935 9.58366 18.9935C5.21116 18.9935 1.66699 17.2219 1.66699 15.0352C1.66699 13.4969 3.42199 12.1627 5.98699 11.5085M16.667 4.20215C16.667 5.92804 14.4284 7.32715 11.667 7.32715C8.90557 7.32715 6.66699 5.92804 6.66699 4.20215C6.66699 2.47626 8.90557 1.07715 11.667 1.07715C14.4284 1.07715 16.667 2.47626 16.667 4.20215Z" stroke="#252525" stroke-linecap="round" stroke-linejoin="round"/>
</svg>