<svg width="20" height="20" viewBox="0 0 20 20" fill="none" xmlns="http://www.w3.org/2000/svg">
<path fill-rule="evenodd" clip-rule="evenodd" d="M16.6621 17.4617C16.5889 17.8202 16.2733 18.0775 15.9075 18.0771H4.09208C3.7262 18.0775 3.41064 17.8202 3.33747 17.4617L1.92285 10.3848H18.0767L16.6621 17.4617Z" stroke="#252525" stroke-linecap="round" stroke-linejoin="round"/>
<path fill-rule="evenodd" clip-rule="evenodd" d="M1.15381 9.0769C1.15381 8.52462 1.60152 8.0769 2.15381 8.0769H17.8461C18.3984 8.0769 18.8461 8.52462 18.8461 9.0769V9.3846C18.8461 9.93688 18.3984 10.3846 17.8461 10.3846H2.15381C1.60152 10.3846 1.15381 9.93688 1.15381 9.3846V9.0769Z" stroke="#252525" stroke-linecap="round" stroke-linejoin="round"/>
<path d="M3.46148 6.53848L8.07686 1.9231" stroke="#252525" stroke-linecap="round" stroke-linejoin="round"/>
<path d="M16.5382 6.53848L11.9229 1.9231" stroke="#252525" stroke-linecap="round" stroke-linejoin="round"/>
</svg>