<svg width="22" height="21" viewBox="0 0 22 21" fill="none" xmlns="http://www.w3.org/2000/svg">
<path d="M3.91667 9.88717V18.6372C3.91667 18.8673 4.10322 19.0538 4.33333 19.0538H17.6667C17.8968 19.0538 18.0833 18.8673 18.0833 18.6372V9.88717M1.41667 9.4705L10.4383 1.23384C10.7565 0.943539 11.2435 0.943539 11.5617 1.23384L20.5833 9.4705M5.7175 16.908C5.7175 16.908 9.44583 11.1147 12.8917 10.2205M8.90333 8.928C7.48667 9.80217 6.85333 11.1647 9.22667 12.6413C9.46917 15.4272 10.8217 15.5738 12.3933 14.6097C13.965 13.6455 15.565 10.2205 15.1858 8.008C12.8333 8.96217 10.68 7.83884 8.90333 8.928Z" stroke="#252525" stroke-linecap="round" stroke-linejoin="round"/>
</svg>