<svg width="20" height="20" viewBox="0 0 20 20" fill="none" xmlns="http://www.w3.org/2000/svg">
<path d="M9.13077 17.6513H2.17425C1.69401 17.6513 1.30469 17.262 1.30469 16.7817V4.60783C1.30469 4.12758 1.69401 3.73826 2.17425 3.73826H17.8264C18.3067 3.73826 18.696 4.12758 18.696 4.60783V10.6948M5.65251 2V6.34783M14.3482 2V6.34783M1.30469 8.08696H18.696M14.7826 15.6522C15.0227 15.6522 15.2174 15.4575 15.2174 15.2174C15.2174 14.9773 15.0227 14.7826 14.7826 14.7826C14.5425 14.7826 14.3478 14.9773 14.3478 15.2174C14.3478 15.4575 14.5425 15.6522 14.7826 15.6522ZM14.7826 15.6522V16.9565M12.087 18.913H17.4783C18.0305 18.913 18.4783 18.4653 18.4783 17.913V13.8261C18.4783 13.2738 18.0305 12.8261 17.4783 12.8261H12.087C11.5347 12.8261 11.087 13.2738 11.087 13.8261V17.913C11.087 18.4653 11.5347 18.913 12.087 18.913ZM12.3913 11.3043C12.3913 9.98367 13.4619 8.91304 14.7826 8.91304C16.1033 8.91304 17.1739 9.98367 17.1739 11.3043V12.8261H12.3913V11.3043Z" stroke="#252525" stroke-linecap="round" stroke-linejoin="round"/>
</svg>