<svg width="20" height="20" viewBox="0 0 20 20" fill="none" xmlns="http://www.w3.org/2000/svg">
<path d="M15.4259 15.4255L12.8494 8.98336C12.6534 8.48238 12.3024 8.47454 12.0798 8.96571L10.0338 13.4647L8.21121 11.2775C8.07949 11.0832 7.85374 10.9744 7.61971 10.9924C7.38567 11.0105 7.17925 11.1526 7.07886 11.3647L4.6416 15.4255" stroke="#252525" stroke-linecap="round" stroke-linejoin="round"/>
<path fill-rule="evenodd" clip-rule="evenodd" d="M1.7002 2.69995C1.7002 2.14767 2.14791 1.69995 2.7002 1.69995H17.3669C17.9191 1.69995 18.3669 2.14767 18.3669 2.69995V17.3666C18.3669 17.9189 17.9191 18.3666 17.3669 18.3666H2.7002C2.14791 18.3666 1.7002 17.9189 1.7002 17.3666V2.69995Z" stroke="#252525" stroke-linecap="round" stroke-linejoin="round"/>
<path d="M1.7002 15.4254H18.3669" stroke="#252525" stroke-linecap="round" stroke-linejoin="round"/>
<path fill-rule="evenodd" clip-rule="evenodd" d="M6.11219 7.58229C6.92437 7.58229 7.58278 6.92388 7.58278 6.1117C7.58278 5.29952 6.92437 4.64111 6.11219 4.64111C5.30001 4.64111 4.6416 5.29952 4.6416 6.1117C4.6416 6.92388 5.30001 7.58229 6.11219 7.58229Z" stroke="#252525" stroke-linecap="round" stroke-linejoin="round"/>
</svg>