<svg width="20" height="20" viewBox="0 0 20 20" fill="none" xmlns="http://www.w3.org/2000/svg">
<path d="M6.23456 9.70236C5.70272 8.52525 4.42213 7.87949 3.16062 8.15229C1.89911 8.42508 0.999011 9.5424 1 10.8343V13.1844H2.17384L2.56513 17.1011H4.91281L5.30409 13.1844H6.08666M13.7653 9.70236C14.2972 8.52525 15.5778 7.87949 16.8393 8.15229C18.1008 8.42508 19.0009 9.5424 18.9999 10.8343V13.1844H17.8261L17.4348 17.1011H15.0871L14.6958 13.1844H13.9132M9.99843 8.48406C10.9709 8.48406 11.7592 7.69494 11.7592 6.72151C11.7592 5.74809 10.9709 4.95897 9.99843 4.95897C9.02599 4.95897 8.23767 5.74809 8.23767 6.72151C8.23767 7.69494 9.02599 8.48406 9.99843 8.48406ZM9.99917 9.26762C8.70258 9.26762 7.65148 10.3198 7.65148 11.6177V13.5761H8.82532L9.21661 17.1012H10.7817L11.173 13.5761H12.3469V11.6177C12.3469 10.3198 11.2958 9.26762 9.99917 9.26762ZM3.73872 7.30845C4.92726 7.30845 5.89076 6.34397 5.89076 5.15422C5.89076 3.96448 4.92726 3 3.73872 3C2.55017 3 1.58667 3.96448 1.58667 5.15422C1.58667 6.34397 2.55017 7.30845 3.73872 7.30845ZM16.2598 7.30845C17.4483 7.30845 18.4118 6.34397 18.4118 5.15422C18.4118 3.96448 17.4483 3 16.2598 3C15.0712 3 14.1077 3.96448 14.1077 5.15422C14.1077 6.34397 15.0712 7.30845 16.2598 7.30845Z" stroke="#252525" stroke-linecap="round" stroke-linejoin="round"/>
</svg>