<svg width="22" height="20" viewBox="0 0 22 20" fill="none" xmlns="http://www.w3.org/2000/svg">
<path d="M18.9167 10.315V6.16667M3.08333 6.16667V10.3175M20.5833 7.39833L11.495 0.680832C11.2006 0.46316 10.7986 0.46316 10.5042 0.680832L1.41667 7.39833M13.0215 17.64C12.1538 19.0704 10.4464 19.7567 8.83019 19.3248C7.21394 18.893 6.0765 17.4464 6.03801 15.7739C5.99951 14.1014 7.0692 12.604 8.66387 12.0982M10.742 8.15847C11.6085 8.15847 12.3108 7.45608 12.3108 6.58963C12.3108 5.72318 11.6085 5.02079 10.742 5.02079C9.87556 5.02079 9.17316 5.72318 9.17316 6.58963C9.17316 7.45608 9.87556 8.15847 10.742 8.15847ZM11.6832 10.3547C11.6832 9.8348 11.2618 9.41336 10.7419 9.41336C10.222 9.41336 9.8006 9.8348 9.8006 10.3547V15.375C9.8006 15.8948 10.222 16.3163 10.7419 16.3163H13.5658C13.674 16.3163 13.7746 16.372 13.8319 16.4637L15.0317 18.384C15.21 18.6692 15.5268 18.8376 15.8629 18.8258C16.199 18.8141 16.5033 18.6239 16.6611 18.3269C16.819 18.03 16.8064 17.6714 16.6282 17.3862L15.4284 15.466C15.0287 14.822 14.3237 14.4312 13.5658 14.4337H11.997C11.8237 14.4337 11.6832 14.2932 11.6832 14.1199V10.3547Z" stroke="#252525" stroke-linecap="round" stroke-linejoin="round"/>
</svg>