<svg width="20" height="20" viewBox="0 0 20 20" fill="none" xmlns="http://www.w3.org/2000/svg">
<path fill-rule="evenodd" clip-rule="evenodd" d="M10.0002 18.7309C14.8217 18.7309 18.7303 14.8223 18.7303 10.0008C18.7303 5.17926 14.8217 1.27063 10.0002 1.27063C5.17864 1.27063 1.27002 5.17926 1.27002 10.0008C1.27002 14.8223 5.17864 18.7309 10.0002 18.7309Z" stroke="#252525" stroke-linecap="round" stroke-linejoin="round"/>
<path d="M11.9845 13.9723H10.794C10.3557 13.9723 10.0004 13.6169 10.0004 13.1786V8.01987C10.0004 7.80071 9.82272 7.62305 9.60356 7.62305H8.41309" stroke="#252525" stroke-linecap="round" stroke-linejoin="round"/>
<path d="M9.79802 5.63501C9.68844 5.63501 9.59961 5.72384 9.59961 5.83342C9.59961 5.943 9.68844 6.03183 9.79802 6.03183C9.9076 6.03183 9.99643 5.943 9.99643 5.83342C9.99643 5.72384 9.9076 5.63501 9.79802 5.63501" stroke="#252525" stroke-linecap="round" stroke-linejoin="round"/>
</svg>