<svg width="22" height="20" viewBox="0 0 22 20" fill="none" xmlns="http://www.w3.org/2000/svg">
<path fill-rule="evenodd" clip-rule="evenodd" d="M11.0002 14.375C11.9206 14.375 12.6668 13.8154 12.6668 13.125C12.6668 12.4346 11.9206 11.875 11.0002 11.875C10.0797 11.875 9.3335 12.4346 9.3335 13.125C9.3335 13.8154 10.0797 14.375 11.0002 14.375Z" stroke="#252525" stroke-linecap="round" stroke-linejoin="round"/>
<path d="M13.2915 8.95837C13.4066 8.95837 13.4998 9.05165 13.4998 9.16671" stroke="#252525" stroke-linecap="round" stroke-linejoin="round"/>
<path d="M13.0835 9.16671C13.0835 9.05165 13.1768 8.95837 13.2918 8.95837" stroke="#252525" stroke-linecap="round" stroke-linejoin="round"/>
<path d="M13.2918 9.37508C13.1768 9.37508 13.0835 9.28181 13.0835 9.16675" stroke="#252525" stroke-linecap="round" stroke-linejoin="round"/>
<path d="M13.4998 9.16675C13.4998 9.28181 13.4066 9.37508 13.2915 9.37508" stroke="#252525" stroke-linecap="round" stroke-linejoin="round"/>
<path d="M8.7085 8.95837C8.82356 8.95837 8.91683 9.05165 8.91683 9.16671" stroke="#252525" stroke-linecap="round" stroke-linejoin="round"/>
<path d="M8.5 9.16671C8.5 9.05165 8.59327 8.95837 8.70833 8.95837" stroke="#252525" stroke-linecap="round" stroke-linejoin="round"/>
<path d="M8.70833 9.37508C8.59327 9.37508 8.5 9.28181 8.5 9.16675" stroke="#252525" stroke-linecap="round" stroke-linejoin="round"/>
<path d="M8.91683 9.16675C8.91683 9.28181 8.82356 9.37508 8.7085 9.37508" stroke="#252525" stroke-linecap="round" stroke-linejoin="round"/>
<path d="M14.109 17.2917C12.5042 17.1978 11.1959 15.9705 10.9998 14.375C10.8037 15.9705 9.49536 17.1978 7.89062 17.2917" stroke="#252525" stroke-linecap="round" stroke-linejoin="round"/>
<path d="M17.1069 9.96509C16.4827 15.7501 13.8986 18.5418 11.0002 18.5418C8.10189 18.5418 5.51772 15.7501 4.89355 9.96509" stroke="#252525" stroke-linecap="round" stroke-linejoin="round"/>
<path d="M14.9433 4.91669C14.9433 4.91669 15.93 10.8334 18.3942 10.3392C20.445 9.92836 21.845 2.94419 18.8875 1.95836C17.3027 1.3444 15.5457 1.3444 13.9608 1.95836C12.0457 1.28748 9.95935 1.28748 8.04418 1.95836C6.45809 1.34491 4.70026 1.34491 3.11418 1.95836C0.156677 2.94419 1.55668 9.92836 3.60751 10.3392C6.07001 10.8334 7.05668 4.91669 7.05668 4.91669" stroke="#252525" stroke-linecap="round" stroke-linejoin="round"/>
</svg>