<svg width="20" height="22" viewBox="0 0 20 22" fill="none" xmlns="http://www.w3.org/2000/svg">
<path d="M4.03756 10.4184L4.64557 9.2024C4.91804 8.43849 5.65969 7.94406 6.46963 7.98636H7.68567C8.49561 7.94406 9.23725 8.43849 9.50972 9.2024L10.1177 10.4184M1 15.2827H13.1604M7.08038 15.2827V17.1068M14.5 13.1974H18.1604C18.7127 13.1974 19.1604 12.7496 19.1604 12.1974V4.46906C19.1604 3.91678 18.7127 3.46906 18.1604 3.46906H8C7.44772 3.46906 7 3.91678 7 4.46906V6.53449M10.0376 3.46926L10.6456 2.25322C10.918 1.48931 11.6597 0.994884 12.4696 1.03718H13.6857C14.4956 0.994884 15.2373 1.48931 15.5097 2.25322L16.1177 3.46926M10.4972 8.33324H19.1602M13.0804 8.33324V9.53441M2 20.1465H12.1604C12.7127 20.1465 13.1604 19.6988 13.1604 19.1465V11.4182C13.1604 10.866 12.7127 10.4182 12.1604 10.4182H2C1.44772 10.4182 1 10.866 1 11.4182V19.1465C1 19.6988 1.44771 20.1465 2 20.1465Z" stroke="#252525" stroke-linecap="round" stroke-linejoin="round"/>
</svg>