<svg width="20" height="22" viewBox="0 0 20 22" fill="none" xmlns="http://www.w3.org/2000/svg">
<path d="M15.4167 18.9167C15.8769 18.9167 16.25 18.5436 16.25 18.0833V16.4167C16.25 15.4962 15.5038 14.75 14.5833 14.75H5.41667C4.49619 14.75 3.75 15.4962 3.75 16.4167V18.0833C3.75 18.5436 4.1231 18.9167 4.58333 18.9167H15.4167ZM15.4167 18.9167L15.4167 19.7503C15.4167 20.2106 15.0436 20.5837 14.5833 20.5837C14.1231 20.5837 13.75 20.2106 13.75 19.7503V18.917M3.75 17.25H5.83333M14.1719 17.25H16.2552M14.5848 14.7503L14.259 12.147C14.2069 11.73 13.8525 11.4171 13.4323 11.417H11.2656M5.42188 14.7503L5.74771 12.147C5.79981 11.73 6.15418 11.4171 6.57438 11.417H7.90771M3.33594 13.5L5.41927 14.75M16.6693 13.5L14.5859 14.75M6.2526 18.917V19.7503C6.2526 20.2106 5.87951 20.5837 5.41927 20.5837C4.95903 20.5837 4.58594 20.2106 4.58594 19.7503V18.917M9.58594 6.83398V11.834C9.58594 12.5243 10.1456 13.084 10.8359 13.084M11.25 3.50033V1.41699M7.92188 3.50033V1.41699M12.5052 3.91667C12.5052 5.5275 11.1994 6.83333 9.58854 6.83333C7.97771 6.83333 6.67188 5.5275 6.67188 3.91667C6.67188 3.80616 6.71577 3.70018 6.79391 3.62204C6.87205 3.5439 6.97803 3.5 7.08854 3.5H12.0885C12.3187 3.5 12.5052 3.68655 12.5052 3.91667Z" stroke="#252525" stroke-linecap="round" stroke-linejoin="round"/>
</svg>