<svg width="20" height="20" viewBox="0 0 20 20" fill="none" xmlns="http://www.w3.org/2000/svg">
<path fill-rule="evenodd" clip-rule="evenodd" d="M1.33301 3.33325C1.33301 2.78097 1.78072 2.33325 2.33301 2.33325H17.6358C18.1881 2.33325 18.6358 2.78097 18.6358 3.33325V16.3792C18.6358 16.9314 18.1881 17.3791 17.6358 17.3791H2.33301C1.78072 17.3791 1.33301 16.9314 1.33301 16.3791V3.33325Z" stroke="#252525" stroke-linecap="round" stroke-linejoin="round"/>
<path fill-rule="evenodd" clip-rule="evenodd" d="M15.2473 7.96961C15.2473 9.00831 14.4053 9.85034 13.3666 9.85034C12.3279 9.85034 11.4858 9.00831 11.4858 7.96961C11.4858 6.9309 12.3279 6.08887 13.3666 6.08887C14.4053 6.08887 15.2473 6.9309 15.2473 7.96961V7.96961Z" stroke="#252525" stroke-linecap="round" stroke-linejoin="round"/>
<path fill-rule="evenodd" clip-rule="evenodd" d="M13.3668 7.78711C13.2629 7.78711 13.1787 7.87131 13.1787 7.97518C13.1787 8.07905 13.2629 8.16326 13.3668 8.16326C13.4707 8.16326 13.5549 8.07905 13.5549 7.97518C13.5549 7.87131 13.4707 7.78711 13.3668 7.78711V7.78711" fill="#252525"/>
<path d="M13.3668 7.78711C13.2629 7.78711 13.1787 7.87131 13.1787 7.97518C13.1787 8.07905 13.2629 8.16326 13.3668 8.16326C13.4707 8.16326 13.5549 8.07905 13.5549 7.97518C13.5549 7.87131 13.4707 7.78711 13.3668 7.78711V7.78711" stroke="#252525" stroke-linecap="round" stroke-linejoin="round"/>
<path fill-rule="evenodd" clip-rule="evenodd" d="M3.58936 5.59045C3.58936 5.03817 4.03707 4.59045 4.58936 4.59045H16.1307C16.6829 4.59045 17.1307 5.03817 17.1307 5.59045V14.1226C17.1307 14.6749 16.6829 15.1226 16.1307 15.1226H4.58936C4.03707 15.1226 3.58936 14.6749 3.58936 14.1226V5.59045Z" stroke="#252525" stroke-linecap="round" stroke-linejoin="round"/>
<path fill-rule="evenodd" clip-rule="evenodd" d="M12.2379 11.1729C12.3417 11.1729 12.426 11.2571 12.426 11.3609C12.426 11.4648 12.3417 11.549 12.2379 11.549C12.134 11.549 12.0498 11.4648 12.0498 11.3609C12.0498 11.2571 12.134 11.1729 12.2379 11.1729" fill="#252525"/>
<path d="M12.2379 11.1729C12.3417 11.1729 12.426 11.2571 12.426 11.3609C12.426 11.4648 12.3417 11.549 12.2379 11.549C12.134 11.549 12.0498 11.4648 12.0498 11.3609C12.0498 11.2571 12.134 11.1729 12.2379 11.1729" stroke="#252525" stroke-linecap="round" stroke-linejoin="round"/>
<path fill-rule="evenodd" clip-rule="evenodd" d="M14.4947 11.1729C14.5986 11.1729 14.6828 11.2571 14.6828 11.3609C14.6828 11.4648 14.5986 11.549 14.4947 11.549C14.3908 11.549 14.3066 11.4648 14.3066 11.3609C14.3066 11.2571 14.3908 11.1729 14.4947 11.1729" fill="#252525"/>
<path d="M14.4947 11.1729C14.5986 11.1729 14.6828 11.2571 14.6828 11.3609C14.6828 11.4648 14.5986 11.549 14.4947 11.549C14.3908 11.549 14.3066 11.4648 14.3066 11.3609C14.3066 11.2571 14.3908 11.1729 14.4947 11.1729" stroke="#252525" stroke-linecap="round" stroke-linejoin="round"/>
<path fill-rule="evenodd" clip-rule="evenodd" d="M12.2379 13.0537C12.3417 13.0537 12.426 13.1379 12.426 13.2418C12.426 13.3457 12.3417 13.4299 12.2379 13.4299C12.134 13.4299 12.0498 13.3457 12.0498 13.2418C12.0498 13.1379 12.134 13.0537 12.2379 13.0537" fill="#252525"/>
<path d="M12.2379 13.0537C12.3417 13.0537 12.426 13.1379 12.426 13.2418C12.426 13.3457 12.3417 13.4299 12.2379 13.4299C12.134 13.4299 12.0498 13.3457 12.0498 13.2418C12.0498 13.1379 12.134 13.0537 12.2379 13.0537" stroke="#252525" stroke-linecap="round" stroke-linejoin="round"/>
<path fill-rule="evenodd" clip-rule="evenodd" d="M14.4947 13.0537C14.5986 13.0537 14.6828 13.1379 14.6828 13.2418C14.6828 13.3457 14.5986 13.4299 14.4947 13.4299C14.3908 13.4299 14.3066 13.3457 14.3066 13.2418C14.3066 13.1379 14.3908 13.0537 14.4947 13.0537" fill="#252525"/>
<path d="M14.4947 13.0537C14.5986 13.0537 14.6828 13.1379 14.6828 13.2418C14.6828 13.3457 14.5986 13.4299 14.4947 13.4299C14.3908 13.4299 14.3066 13.3457 14.3066 13.2418C14.3066 13.1379 14.3908 13.0537 14.4947 13.0537" stroke="#252525" stroke-linecap="round" stroke-linejoin="round"/>
</svg>